<?xml version="1.0" encoding="iso-8859-1"?>
<!-- Generator: Adobe Illustrator 21.0.0, SVG Export Plug-In . SVG Version: 6.00 Build 0)  -->
<svg xmlns="http://www.w3.org/2000/svg" xmlns:xlink="http://www.w3.org/1999/xlink" version="1.1" id="Capa_1" x="0px" y="0px" viewBox="0 0 512 512" style="enable-background:new 0 0 512 512;" xml:space="preserve" width="512" height="512">
<g>
	<g>
		<g>
			<path style="fill:#606A70;" d="M88.573,216.543c-0.69,0-1.39-0.048-2.094-0.146c-8.205-1.146-13.927-8.726-12.78-16.931     c5.923-42.399,7.967-107.466,61.833-148.227c32.128-24.312,74.23-36.242,120.463-36.242c46.183,0,86.735,14.052,120.363,36.17     c53.975,35.5,55.914,105.709,61.896,148.034c1.159,8.203-4.551,15.793-12.754,16.952c-8.2,1.159-15.792-4.551-16.951-12.754     c-4.817-34.087-22.047-62.775-49.826-82.963c-27.401-19.913-62.924-30.438-102.728-30.438     c-39.277,0-75.789,10.831-102.809,30.497c-27.793,20.229-45.006,48.972-49.776,83.121     C102.362,211.117,95.938,216.543,88.573,216.543z"/>
			<path style="fill:#414952;" d="M376.358,51.167C342.732,29.05,302.181,14.998,256,14.997v75.001     c39.802,0.001,75.322,10.526,102.723,30.438c27.779,20.188,45.009,48.876,49.826,82.963c1.159,8.202,8.751,13.912,16.951,12.754     c8.203-1.159,13.913-8.749,12.754-16.952C432.272,156.876,430.333,86.667,376.358,51.167z"/>
		</g>
		<g>
			<g>
				<path style="fill:#C9DFF7;" d="M99.636,275.264c-6.23,0-12.05-3.911-14.186-10.133l-1.463-4.261      c-0.022-0.067-0.045-0.135-0.067-0.202c-7.446-22.736-11.892-58.885-11.892-96.7c0-49.124,18.973-90.96,54.867-120.984      C160.033,15.265,205.884,0,256,0s95.967,15.265,129.105,42.984c35.895,30.024,54.867,71.86,54.867,120.984      c0,37.468-4.468,72.649-12.259,96.538l-0.707,2.24c-2.493,7.899-10.917,12.284-18.818,9.791      c-7.9-2.493-12.284-10.918-9.791-18.819l0.73-2.312c0.015-0.048,0.03-0.097,0.047-0.145      c6.862-21.005,10.799-52.822,10.799-87.294c0-39.954-15.255-73.833-44.115-97.973C338.107,42.784,299.093,30,256,30      s-82.107,12.783-109.857,35.995c-28.86,24.14-44.115,58.019-44.115,97.973c0,34.241,3.972,67.661,10.369,87.264l1.428,4.157      c2.689,7.835-1.481,16.368-9.316,19.058C102.895,275.001,101.251,275.264,99.636,275.264z"/>
			</g>
			<path style="fill:#AECEF2;" d="M365.857,65.995c28.86,24.14,44.115,58.019,44.115,97.973c0,34.471-3.937,66.288-10.799,87.294     c-0.017,0.048-0.032,0.097-0.047,0.145l-0.73,2.312c-2.493,7.9,1.891,16.326,9.791,18.819c7.901,2.493,16.325-1.892,18.818-9.791     l0.707-2.24c7.791-23.889,12.259-59.07,12.259-96.538c0-49.124-18.973-90.96-54.867-120.984C351.967,15.265,306.116,0,256,0v30     C299.093,30,338.107,42.784,365.857,65.995z"/>
		</g>
	</g>
	<g>
		<path style="fill:#606A70;" d="M328.527,482.004h-42.95c-8.284,0-15-6.716-15-15c0-8.284,6.716-15,15-15h42.95    c14.945,0,28.248-9.497,33.103-23.631l8.649-25.183c2.69-7.836,11.226-12.005,19.059-9.314    c7.836,2.691,12.006,11.224,9.314,19.059l-8.649,25.183C380.987,464.368,356.282,482.004,328.527,482.004z"/>
		<g>
			<path style="fill:#606A70;" d="M243.145,512c-9.984,0-19.707-3.517-27.452-10.078c-9.553-8.093-15.032-19.915-15.032-32.435     v-4.965c0-12.52,5.479-24.342,15.033-32.435c9.553-8.093,22.114-11.554,34.467-9.496l14.894,2.482     c20.583,3.431,35.522,21.065,35.522,41.932c0,20.866-14.939,38.501-35.522,41.932l-14.894,2.482     C247.823,511.808,245.477,512,243.145,512z"/>
			<path style="fill:#414952;" d="M265.055,425.072L256,423.563v86.882l9.055-1.509c20.583-3.431,35.522-21.066,35.522-41.932     C300.577,446.138,285.638,428.503,265.055,425.072z"/>
		</g>
	</g>
	<g>
		<g>
			<path style="fill:#AECEF2;" d="M399.111,407.998V243.791c41.355,0,75,33.644,75,74.999V333     C474.111,374.354,440.467,407.998,399.111,407.998z"/>
			<path style="fill:#82A0D2;" d="M399.111,326.789v82.103c41.355,0,75-33.644,75-74.998v-7.105H399.111z"/>
		</g>
		<g>
			<path style="fill:#414952;" d="M379.111,425.892h-30c-19.299,0-35-15.701-35-35V260.897c0-19.299,15.701-35,35-35h30     c19.299,0,35,15.701,35,35v129.995C414.111,410.191,398.41,425.892,379.111,425.892z"/>
			<path style="fill:#2A3036;" d="M314.111,326.789v64.997c0,19.299,15.701,35,35,35h30c19.299,0,35-15.701,35-35v-64.997H314.111z"/>
		</g>
	</g>
	<g>
		<g>
			<path style="fill:#C9DFF7;" d="M112.889,407.998c-41.355,0-75-33.645-75-75v-14.207c0-41.355,33.645-75,75-75V407.998z"/>
			<path style="fill:#AECEF2;" d="M37.889,323.789v9.208c0,41.355,33.645,75,75,75v-84.209H37.889z"/>
		</g>
		<g>
			<path style="fill:#606A70;" d="M162.889,425.892h-30c-19.299,0-35-15.701-35-35V260.897c0-19.299,15.701-35,35-35h30     c19.299,0,35,15.701,35,35v129.995C197.889,410.191,182.188,425.892,162.889,425.892z"/>
			<path style="fill:#414952;" d="M97.889,323.789v67.103c0,19.299,15.701,35,35,35h30c19.299,0,35-15.701,35-35v-67.103H97.889z"/>
		</g>
	</g>
</g>















</svg>
