<?xml version="1.0" encoding="iso-8859-1"?>
<!-- Generator: Adobe Illustrator 19.0.0, SVG Export Plug-In . SVG Version: 6.00 Build 0)  -->
<svg version="1.1" id="Capa_1" xmlns="http://www.w3.org/2000/svg" xmlns:xlink="http://www.w3.org/1999/xlink" x="0px" y="0px"
	 viewBox="0 0 368 368" style="enable-background:new 0 0 368 368;" xml:space="preserve">
<g>
	<g>
		<path d="M240,80h112c8.824,0,16-7.176,16-16V16c0-8.824-7.176-16-16-16H240c-8.824,0-16,7.176-16,16v16h-40c-4.416,0-8,3.584-8,8
			v136h-32v-16c0-8.824-7.176-16-16-16H16c-8.824,0-16,7.176-16,16v48c0,8.824,7.176,16,16,16h112c8.824,0,16-7.176,16-16v-16h32
			v136c0,4.416,3.584,8,8,8h40v16c0,8.824,7.176,16,16,16h112c8.824,0,16-7.176,16-16v-48c0-8.824-7.176-16-16-16H240
			c-8.824,0-16,7.176-16,16v16h-32V192h32v16c0,8.824,7.176,16,16,16h112c8.824,0,16-7.176,16-16v-48c0-8.824-7.176-16-16-16H240
			c-8.824,0-16,7.176-16,16v16h-32V48h32v16C224,72.824,231.176,80,240,80z M240,16l112-0.008V64H240V16z M128,208H16v-48l112-0.008
			V208z M240,304l112-0.008V352H240V304z M240,160l112-0.008V208H240V160z"/>
	</g>
</g>
<g>
</g>
<g>
</g>
<g>
</g>
<g>
</g>
<g>
</g>
<g>
</g>
<g>
</g>
<g>
</g>
<g>
</g>
<g>
</g>
<g>
</g>
<g>
</g>
<g>
</g>
<g>
</g>
<g>
</g>
</svg>
