<?xml version="1.0" encoding="iso-8859-1"?>
<!-- Generator: Adobe Illustrator 21.0.0, SVG Export Plug-In . SVG Version: 6.00 Build 0)  -->
<svg xmlns="http://www.w3.org/2000/svg" xmlns:xlink="http://www.w3.org/1999/xlink" version="1.1" id="Capa_1" x="0px" y="0px" viewBox="0 0 512.008 512.008" style="enable-background:new 0 0 512.008 512.008;" xml:space="preserve" width="512" height="512">
<g>
	<g>
		<g>
			<path style="fill:#606A70;" d="M166.007,461.107v-72.163h180v72.163H166.007z"/>
			<rect x="256.014" y="388.944" style="fill:#414952;" width="89.993" height="72.163"/>
		</g>
		<g>
			<path style="fill:#AECEF2;" d="M371.007,476.107h-230c-8.284,0-15-6.716-15-15c0-8.284,6.716-15,15-15h230     c8.284,0,15,6.716,15,15C386.007,469.391,379.291,476.107,371.007,476.107z"/>
			<path style="fill:#9EBBDB;" d="M371.007,446.107H256.014v30h114.993c8.284,0,15-6.716,15-15     C386.007,452.823,379.291,446.107,371.007,446.107z"/>
		</g>
	</g>
	<g>
		<g>
			<rect x="15.007" y="51.004" style="fill:#FFF35C;" width="482" height="272.036"/>
			<rect x="256.014" y="51.004" style="fill:#FFD236;" width="240.993" height="272.036"/>
		</g>
		<g>
			<path style="fill:#AECEF2;" d="M512,308.04V50.902c0-8.284-6.716-15-15-15H15c-8.284,0-15,6.716-15,15V323.04     c0,0.056,0.008,0.109,0.008,0.165V389.1c0,8.284,6.716,15,15,15h482c8.284,0,15-6.716,15-15v-81.06H512z M482,75.902V298.04     c0,5.523-4.477,10-10,10H40c-5.523,0-10-4.477-10-10V75.902c0-5.523,4.477-10,10-10h432C477.523,65.902,482,70.379,482,75.902z"/>
			<path style="fill:#9EBBDB;" d="M512.007,308.04H512V50.902c0-8.284-6.716-15-15-15H256.014v30H472c5.523,0,10,4.477,10,10V298.04     c0,5.523-4.477,10-10,10H256.014v96.06h240.995c8.274,0,14.983-6.7,14.999-14.971V308.04z"/>
			<g>
				<path style="fill:#DB0253;" d="M437.008,353.04c-8.284,0-15,6.716-15,15v36.06h30v-36.06      C452.008,359.756,445.292,353.04,437.008,353.04z"/>
				<path style="fill:#414952;" d="M377.008,353.04c-8.284,0-15,6.716-15,15v36.06h30v-36.06      C392.008,359.756,385.292,353.04,377.008,353.04z"/>
				<path style="fill:#414952;" d="M317.008,353.04c-8.284,0-15,6.716-15,15v36.06h30v-36.06      C332.008,359.756,325.292,353.04,317.008,353.04z"/>
			</g>
		</g>
	</g>
	<g>
		<path style="fill:#FE5857;" d="M108.811,239.105c-5.44,0-10.88-2.56-10.88-7.681V129.662c0-5.28,6.24-7.521,12.48-7.521    c6.24,0,12.48,2.24,12.48,7.521v87.682h36.481c4.8,0,7.2,5.44,7.2,10.881c0,5.439-2.4,10.88-7.2,10.88H108.811z"/>
		<path style="fill:#FE5857;" d="M184.648,129.662c0-5.28,6.24-7.521,12.48-7.521c6.24,0,12.48,2.24,12.48,7.521v101.762    c0,5.121-6.24,7.681-12.48,7.681c-6.24,0-12.48-2.56-12.48-7.681V129.662z"/>
		<path style="fill:#FE5857;" d="M227.207,134.143c-0.16-0.641-0.32-1.28-0.32-1.761c0-5.92,9.12-10.24,16-10.24    c4,0,7.2,1.28,8.16,4.641l22.4,82.082l22.24-82.082c0.96-3.36,4.16-4.641,8.16-4.641c6.88,0,16,4.32,16,10.24    c0,0.48-0.16,1.12-0.32,1.761l-29.761,97.601c-1.76,5.601-8.96,8.32-16.32,8.32c-7.36,0-14.561-2.72-16.32-8.32L227.207,134.143z"/>
		<path style="fill:#DB0253;" d="M362.086,170.944h24.001c4.8,0,7.52,4.64,7.52,9.76c0,4.32-2.24,9.44-7.52,9.44h-24.001v27.2    h42.881c4.8,0,7.52,5.12,7.52,11.04c0,5.12-2.24,10.721-7.52,10.721h-56.961c-5.44,0-10.88-2.56-10.88-7.681V129.823    c0-5.12,5.44-7.681,10.88-7.681h56.961c5.28,0,7.52,5.601,7.52,10.721c0,5.92-2.72,11.04-7.52,11.04h-42.881V170.944z"/>
		<path style="fill:#DB0253;" d="M303.849,122.142c-4,0-7.2,1.28-8.16,4.641l-22.24,82.082l-17.435-63.886v83.131l1.114,3.635    c1.76,5.601,8.96,8.32,16.32,8.32c7.36,0,14.56-2.72,16.32-8.32l29.761-97.601c0.16-0.641,0.32-1.28,0.32-1.761    C319.849,126.462,310.729,122.142,303.849,122.142z"/>
	</g>
</g>















</svg>
