<?xml version="1.0" encoding="iso-8859-1"?>
<!-- Generator: Adobe Illustrator 21.0.0, SVG Export Plug-In . SVG Version: 6.00 Build 0)  -->
<svg xmlns="http://www.w3.org/2000/svg" xmlns:xlink="http://www.w3.org/1999/xlink" version="1.1" id="Capa_1" x="0px" y="0px" viewBox="0 0 512 512" style="enable-background:new 0 0 512 512;" xml:space="preserve" width="512" height="512">
<g>
	<g>
		<path style="fill:#C9DFF7;" d="M501.298,491.444c-16.339-51.594-48.083-96.028-91.797-128.497    c-44.581-33.111-97.601-50.613-153.329-50.616c0,0-0.001,0-0.002,0h-0.001c-0.002,0-0.005,0-0.007,0    c-55.934,0-109.112,17.618-153.787,50.949c-16.585,12.374-31.596,26.771-44.707,42.701c-0.545,0.558-1.064,1.15-1.53,1.807    c-0.07,0.099-0.126,0.204-0.194,0.305c-20.192,25.061-35.713,53.811-45.262,84.439c-2.466,7.909,1.947,16.319,9.855,18.785    c1.486,0.463,2.99,0.684,4.47,0.684c6.391,0,12.313-4.117,14.315-10.539c7.213-23.135,18.295-45.056,32.515-64.77    c13.405,8.245,28.214,15.496,44.131,21.663c-3.168,11.156-5.884,22.805-8.101,34.9c-1.493,8.148,3.901,15.965,12.05,17.458    c0.914,0.168,1.824,0.249,2.722,0.249c7.101,0,13.411-5.064,14.736-12.299c1.951-10.645,4.334-20.913,7.098-30.76    c29.956,8.584,62.74,13.696,96.698,14.861v13.194c0,8.284,6.716,15,15,15c8.284,0,15-6.716,15-15v-13.194    c33.946-1.165,66.719-6.276,96.665-14.856c2.765,9.829,5.132,20.003,7.054,30.439c1.5,8.147,9.327,13.536,17.469,12.035    c8.147-1.501,13.535-9.321,12.035-17.469c-2.205-11.973-4.9-23.507-8.038-34.558c15.917-6.167,30.726-13.419,44.132-21.663    c14.026,19.441,24.999,41.031,32.213,63.81c2.5,7.898,10.931,12.273,18.828,9.771    C499.425,507.772,503.799,499.342,501.298,491.444z M91.155,413.321c8.942-9.468,18.694-18.188,29.159-25.996    c13.739-10.251,28.393-18.813,43.742-25.627c-15.21,18.422-28.334,41.466-38.622,68.201    C113.17,425.065,101.686,419.523,91.155,413.321z M153.96,439.474c20.333-51.917,52.218-87.433,87.21-95.43v108.699    C210.432,451.622,180.879,447.066,153.96,439.474z M271.17,452.743V344.005c24.91,5.575,44.15,24.123,56.617,40.106    c11.887,15.238,22.231,34.091,30.553,55.37C331.432,447.067,301.893,451.621,271.17,452.743z M386.885,429.901    c-10.292-26.739-23.423-49.787-38.639-68.211c15.21,6.75,29.736,15.219,43.367,25.342c10.612,7.882,20.501,16.7,29.556,26.289    C410.637,419.523,399.151,425.066,386.885,429.901z"/>
		<path style="fill:#9EBBDB;" d="M271.17,495.958v-13.194c33.946-1.165,66.719-6.276,96.665-14.856    c2.765,9.829,5.132,20.003,7.054,30.439c1.5,8.147,9.327,13.536,17.469,12.035c8.147-1.501,13.535-9.321,12.035-17.469    c-2.205-11.973-4.9-23.507-8.038-34.558c15.917-6.167,30.726-13.419,44.132-21.663c14.026,19.441,24.999,41.031,32.213,63.81    c2.5,7.898,10.931,12.273,18.828,9.771c7.898-2.501,12.272-10.931,9.771-18.828c-16.339-51.594-48.083-96.028-91.797-128.497    c-44.581-33.111-97.601-50.613-153.329-50.616c0,0-0.001,0-0.002,0v198.626C264.454,510.958,271.17,504.242,271.17,495.958z     M391.613,387.031c10.612,7.882,20.501,16.7,29.556,26.289c-10.533,6.203-22.019,11.746-34.284,16.58    c-10.292-26.739-23.423-49.787-38.639-68.211C363.456,368.439,377.983,376.908,391.613,387.031z M271.17,344.005    c24.91,5.575,44.15,24.123,56.617,40.106c11.887,15.238,22.231,34.091,30.553,55.37c-26.908,7.587-56.446,12.141-87.17,13.262    V344.005z"/>
	</g>
	<g>
		<path style="fill:#FFD236;" d="M256.161,0C188.28,0,133.054,55.112,133.054,122.853c0,41.977,50.708,133.56,93.246,202.997    c6.413,10.469,17.576,16.719,29.861,16.719c12.285,0,23.448-6.25,29.862-16.719c42.538-69.437,93.245-161.02,93.245-202.997    C379.269,55.112,324.043,0,256.161,0z M256.161,165.132c-27.933,0-50.659-22.687-50.659-50.575    c0-27.887,22.725-50.575,50.659-50.575c27.933,0,50.659,22.687,50.659,50.575C306.82,142.444,284.095,165.132,256.161,165.132z"/>
		<path style="fill:#FFB500;" d="M256.17,0v63.982c27.929,0.005,50.65,22.69,50.65,50.575c0,27.885-22.721,50.57-50.65,50.575    v177.437c12.282-0.003,23.441-6.252,29.853-16.718c42.538-69.437,93.245-161.02,93.245-202.997    C379.269,55.115,324.047,0.005,256.17,0z"/>
	</g>
</g>















</svg>
