<?xml version="1.0" encoding="iso-8859-1"?>
<!-- Generator: Adobe Illustrator 21.0.0, SVG Export Plug-In . SVG Version: 6.00 Build 0)  -->
<svg xmlns="http://www.w3.org/2000/svg" xmlns:xlink="http://www.w3.org/1999/xlink" version="1.1" id="Capa_1" x="0px" y="0px" viewBox="0 0 512 512" style="enable-background:new 0 0 512 512;" xml:space="preserve" width="512" height="512">
<g>
	<g>
		<g>
			<rect x="227.999" y="15.005" style="fill:#F0F6FE;" width="268.991" height="188.558"/>
			<rect x="362.494" y="15.005" style="fill:#DFEEFA;" width="134.495" height="188.558"/>
		</g>
		<g>
			<path style="fill:#C9DFF7;" d="M497,220.388H226.993c-8.284,0-15-6.716-15-15V15c0-8.284,6.716-15,15-15H497     c8.284,0,15,6.716,15,15v190.388C512,213.672,505.284,220.388,497,220.388z M241.993,190.388H482V30H241.993V190.388z"/>
			<path style="fill:#AECEF2;" d="M497,0H362.494v30H482v160.388H362.494v30H497c8.284,0,15-6.716,15-15V15     C512,6.716,505.284,0,497,0z"/>
		</g>
	</g>
	<g>
		<g>
			<path style="fill:#FE5857;" d="M342.868,512H15c-8.284,0-15-6.716-15-15v-60.76c0-57.999,47.104-105.184,105.002-105.184h147.864     c57.898,0,105.002,47.185,105.002,105.184V497C357.868,505.284,351.152,512,342.868,512z"/>
			<path style="fill:#DB0253;" d="M252.866,331.056h-73.935V512h163.937c8.284,0,15-6.716,15-15v-60.76     C357.868,378.241,310.765,331.056,252.866,331.056z"/>
		</g>
		<g>
			<path style="fill:#FFBE85;" d="M241.601,346.056c0,34.68-28.057,62.793-62.667,62.793s-62.667-28.113-62.667-62.793v-24.386     h125.334V346.056z"/>
			<path style="fill:#F59258;" d="M178.932,408.85c0,0,0.002,0,0.003,0c34.61,0,62.667-28.113,62.667-62.793v-24.386h-62.67V408.85z     "/>
		</g>
		<g>
			<path style="fill:#414952;" d="M177.503,331.519c-1.322,0-2.645-0.023-3.975-0.068c-39.096-1.346-74.384-23.008-94.398-57.946     c-0.077-0.134-0.151-0.27-0.225-0.406l-17.587-33.026l0,0c-17.484-32.835-21.676-91.7,4.996-136.12     c15.666-26.092,47.921-57.194,112.617-57.194s96.953,31.103,112.62,57.195c26.672,44.419,22.482,103.284,4.998,136.119     l-17.587,33.026c-0.235,0.44-0.491,0.869-0.769,1.283C253.82,310.86,217.299,331.519,177.503,331.519z"/>
			<path style="fill:#181B1F;" d="M278.194,274.382c0.277-0.415,0.533-0.843,0.769-1.283l17.587-33.026     c17.483-32.835,21.674-91.699-4.998-136.119c-15.667-26.092-47.924-57.195-112.62-57.195v284.737     C218.171,331.007,254.113,310.423,278.194,274.382z"/>
		</g>
		<g>
			<path style="fill:#FFDAAB;" d="M265.723,203.563l-40.13-63.011c-23.331,10.433-69.988,10.438-93.323,0.015l-40.124,62.997v55.707     c0,47.931,38.856,86.786,86.786,86.786h0.004c47.931,0,86.786-38.856,86.786-86.786V203.563z"/>
			<path style="fill:#FFBE85;" d="M178.932,148.38v197.676h0h0.004c47.931,0,86.786-38.856,86.786-86.786v-55.707l-40.13-63.011     C213.926,145.768,196.429,148.378,178.932,148.38z"/>
		</g>
	</g>
	<g>
		<g>
			<polyline style="fill:#5877A6;" points="416.779,512 416.779,443.627 475.356,443.627 475.356,512    "/>
			<rect x="446.067" y="443.626" style="fill:#416191;" width="29.289" height="68.373"/>
		</g>
		<g>
			<path style="fill:#49545C;" d="M483.682,387.307c3.624-14.876,5.696-28.562,5.696-36.396c0-23.967-19.391-43.397-43.31-43.397     c-23.919,0-43.31,19.429-43.31,43.397c0,7.833,2.071,21.519,5.695,36.395v9.266h75.23V387.307z"/>
			<path style="fill:#18304A;" d="M446.067,307.515L446.067,307.515l0,89.057h37.615l0-9.265     c3.624-14.876,5.696-28.562,5.696-36.395C489.377,326.944,469.987,307.515,446.067,307.515z"/>
		</g>
		<g>
			<path style="fill:#FFD236;" d="M486.999,453.627h-81.864c-5.523,0-10-4.477-10-10v-46.319c0-5.523,4.477-10,10-10h81.864     c5.523,0,10,4.477,10,10v46.319C496.999,449.149,492.522,453.627,486.999,453.627z"/>
			<path style="fill:#FF9300;" d="M486.999,387.307h-40.932v66.319h40.932c5.523,0,10-4.477,10-10v-46.319     C496.999,391.784,492.522,387.307,486.999,387.307z"/>
		</g>
	</g>
</g>















</svg>
