<svg id="Capa_1" enable-background="new 0 0 512 512" height="512" viewBox="0 0 512 512" width="512" xmlns="http://www.w3.org/2000/svg"><g><path d="m361.138 183.506h-281.976c-4.142 0-7.5 3.357-7.5 7.5s3.358 7.5 7.5 7.5h281.977c4.142 0 7.5-3.357 7.5-7.5s-3.359-7.5-7.501-7.5z"/><path d="m368.638 260.364c0-4.143-3.358-7.5-7.5-7.5h-281.976c-4.142 0-7.5 3.357-7.5 7.5s3.358 7.5 7.5 7.5h281.977c4.141 0 7.499-3.357 7.499-7.5z"/><path d="m283.165 329.724c0-4.143-3.358-7.5-7.5-7.5h-196.503c-4.142 0-7.5 3.357-7.5 7.5s3.358 7.5 7.5 7.5h196.503c4.142 0 7.5-3.358 7.5-7.5z"/><path d="m79.162 391.582c-4.142 0-7.5 3.357-7.5 7.5s3.358 7.5 7.5 7.5h140.988c4.142 0 7.5-3.357 7.5-7.5s-3.358-7.5-7.5-7.5z"/><path d="m79.162 82.374h151.127c4.142 0 7.5-3.357 7.5-7.5s-3.358-7.5-7.5-7.5h-151.127c-4.142 0-7.5 3.357-7.5 7.5s3.358 7.5 7.5 7.5z"/><path d="m79.162 131.75h151.127c4.142 0 7.5-3.357 7.5-7.5s-3.358-7.5-7.5-7.5h-151.127c-4.142 0-7.5 3.357-7.5 7.5s3.358 7.5 7.5 7.5z"/><path d="m488.837 218.219c0-5.071-1.975-9.838-5.561-13.424-7.402-7.4-19.445-7.4-26.847 0l-18.139 18.138c-5.762-1.964-12.404-.653-16.991 3.935l-214.065 214.067c-.451.451-.842.957-1.165 1.507l-27.264 46.438c-1.504 2.562-2.209 5.363-2.151 8.121h-119.518c-10.462 0-18.973-8.511-18.973-18.973v-444.055c0-10.462 8.511-18.973 18.973-18.973h240.25v89.247c0 15.165 12.338 27.503 27.503 27.503h89.248v69.417c0 4.143 3.358 7.5 7.5 7.5s7.5-3.357 7.5-7.5v-76.917c0-1.989-.79-3.896-2.197-5.304l-116.751-116.75c-1.406-1.406-3.314-2.196-5.303-2.196h-247.75c-18.733 0-33.973 15.24-33.973 33.973v444.055c0 18.732 15.24 33.973 33.973 33.973h338.027c18.733 0 33.973-15.24 33.973-33.973v-145.278c0-4.143-3.358-7.5-7.5-7.5s-7.5 3.357-7.5 7.5v145.277c0 10.462-8.511 18.973-18.973 18.973h-173.516l24.561-14.42c.549-.322 1.055-.714 1.506-1.164l214.066-214.066c3.113-3.112 4.827-7.25 4.827-11.652 0-2.156-.411-4.248-1.197-6.188l17.867-17.867c3.585-3.586 5.56-8.353 5.56-13.424zm-176.451-113.972v-78.641l91.144 91.144h-78.641c-6.894 0-12.503-5.608-12.503-12.503zm107.65 183.633-19.267-19.267 9.43-9.43 19.267 19.267zm-177.624 177.625-19.267-19.267 167.017-167.018 19.267 19.267zm-50.411 31.495c-.122-.028-.328-.234-.352-.323.003-.019.025-.09.092-.204l22.353-38.071 16.155 16.155-38.072 22.352c-.108.063-.176.087-.172.092h-.004zm259.173-240.258-11.101 11.101-19.267-19.267 11.1-11.1c.577-.576 1.515-.576 2.091 0l17.178 17.178c.357.357.433.766.433 1.044-.001.279-.076.687-.434 1.044zm21.496-35.707-16.95 16.951-5.634-5.634 16.95-16.949c1.552-1.553 4.081-1.553 5.634 0 .752.752 1.167 1.752 1.167 2.816s-.414 2.064-1.167 2.816z"/></g></svg>