<?xml version="1.0" encoding="iso-8859-1"?>
<!-- Generator: Adobe Illustrator 21.0.0, SVG Export Plug-In . SVG Version: 6.00 Build 0)  -->
<svg xmlns="http://www.w3.org/2000/svg" xmlns:xlink="http://www.w3.org/1999/xlink" version="1.1" id="Capa_1" x="0px" y="0px" viewBox="0 0 512 512" style="enable-background:new 0 0 512 512;" xml:space="preserve" width="512" height="512">
<g>
	<g>
		<g>
			<path style="fill:#28415E;" d="M374.606,328.577c-3.982,0-7.802-1.584-10.616-4.403c-30.073-30.126-30.073-79.144,0-109.27     l102.574-102.755c2.814-2.819,6.634-4.403,10.616-4.403c3.982,0,7.802,1.584,10.616,4.403l2.78,2.785     c28.54,28.59,28.54,75.11,0,103.7l-105.354,105.54C382.408,326.993,378.59,328.577,374.606,328.577z"/>
		</g>
		<g>
			<path style="fill:#AECEF2;" d="M65.648,336.328L296.978,104.59l109.761,109.954L175.445,446.245L65.648,336.328z"/>
			<polygon style="fill:#9EBBDB;" points="175.445,446.245 406.739,214.544 352.164,159.873 120.648,391.389    "/>
		</g>
		<g>
			<path style="fill:#5877A6;" d="M385.545,235.775L275.784,125.822L379.416,22.008C393.583,7.816,412.421,0,432.459,0     c20.038,0,38.876,7.816,53.043,22.008l3.712,3.718c29.227,29.279,29.227,76.919,0,106.197L385.545,235.775z"/>
			<path style="fill:#416191;" d="M385.545,235.775l103.669-103.852c29.227-29.278,29.227-76.918,0-106.197l-1.45-1.453     L330.951,181.086L385.545,235.775z"/>
		</g>
		<g>
			<path style="fill:#18304A;" d="M15.018,512c-3.835,0-7.669-1.461-10.597-4.384c-5.863-5.852-5.872-15.35-0.018-21.213     l22.712-22.751c5.852-5.864,15.35-5.872,21.213-0.019c5.863,5.853,5.872,15.35,0.018,21.213l-22.712,22.751     C22.704,510.532,18.861,512,15.018,512z"/>
			<path style="fill:#071321;" d="M15.018,512c3.843,0,7.686-1.468,10.616-4.403l22.712-22.751c5.84-5.85,5.842-15.317,0.018-21.173     L4.421,507.616C7.349,510.539,11.183,512,15.018,512z"/>
		</g>
		<g>
			<path style="fill:#5877A6;" d="M66.854,494.069c-12.7,0-25.22-4.949-34.613-14.359c-14.789-14.814-18.533-37.4-9.317-56.204     l42.724-87.178l109.797,109.917l-87.033,42.803C81.544,492.426,74.169,494.069,66.854,494.069z"/>
			<path style="fill:#416191;" d="M66.854,494.069c7.315,0,14.69-1.642,21.559-5.02l87.033-42.803l-54.797-54.856l-88.363,88.363     C41.673,489.134,54.173,494.069,66.854,494.069z"/>
		</g>
	</g>
</g>















</svg>
