<?xml version="1.0" encoding="iso-8859-1"?>
<!-- Generator: Adobe Illustrator 21.0.0, SVG Export Plug-In . SVG Version: 6.00 Build 0)  -->
<svg xmlns="http://www.w3.org/2000/svg" xmlns:xlink="http://www.w3.org/1999/xlink" version="1.1" id="Capa_1" x="0px" y="0px" viewBox="0 0 512.008 512.008" style="enable-background:new 0 0 512.008 512.008;" xml:space="preserve" width="512" height="512">
<g>
	<g>
		<g>
			<path style="fill:#FFDAAB;" d="M106.5,314.565c-3.519,0-7.051-1.23-9.901-3.737c-6.22-5.472-6.827-14.949-1.355-21.17     l55.528-63.127l47.465-81.45c4.171-7.156,13.355-9.58,20.512-5.407c7.158,4.171,9.579,13.354,5.408,20.513l-48.2,82.71     c-0.488,0.838-1.057,1.626-1.697,2.355l-56.491,64.222C114.804,312.843,110.662,314.565,106.5,314.565z"/>
			<path style="fill:#FFBE85;" d="M413.786,314.565c-3.819,0-7.64-1.45-10.565-4.353l-64.716-64.222     c-0.93-0.923-1.734-1.963-2.394-3.095l-48.2-82.71c-4.171-7.158-1.75-16.342,5.408-20.513c7.158-4.17,16.34-1.75,20.512,5.407     l47.206,81.005l63.315,62.832c5.88,5.836,5.916,15.333,0.081,21.213C421.502,313.086,417.645,314.565,413.786,314.565z"/>
		</g>
		<g>
			<g>
				<path style="fill:#416191;" d="M316.362,314.565H195.637c-4.158,0-8.13-1.727-10.967-4.767      c-2.837-3.041-4.284-7.122-3.997-11.27l8.632-124.514c2.489-34.854,31.784-62.13,66.694-62.13s64.205,27.276,66.692,62.099      l8.634,124.545c0.288,4.148-1.16,8.229-3.997,11.27C324.493,312.839,320.521,314.565,316.362,314.565z"/>
				<path style="fill:#28415E;" d="M322.692,173.983c-2.487-34.822-31.782-62.099-66.692-62.099c-0.001,0-0.003,0-0.004,0v202.681      h60.367c4.158,0,8.13-1.727,10.967-4.767c2.837-3.041,4.284-7.122,3.997-11.27L322.692,173.983z"/>
			</g>
			<g>
				<path style="fill:#FFDAAB;" d="M256.003,138.652h-0.008c-31.568,0-57.25-25.683-57.25-57.25V57.25      c0-31.567,25.682-57.25,57.25-57.25c31.576,0,57.258,25.683,57.258,57.25v24.152      C313.253,112.97,287.571,138.652,256.003,138.652z"/>
				<path style="fill:#FFBE85;" d="M256.003,138.652c31.568,0,57.25-25.683,57.25-57.25V57.25c0-31.567-25.682-57.25-57.258-57.25      v138.652H256.003z"/>
			</g>
		</g>
	</g>
	<g>
		<g>
			<path style="fill:#414952;" d="M35.305,313.845c-1.951,0-3.934-0.383-5.843-1.191c-7.628-3.23-11.193-12.034-7.963-19.662     L85.329,142.28c3.231-7.627,12.036-11.191,19.662-7.963c7.628,3.23,11.193,12.034,7.963,19.662L49.125,304.69     C46.702,310.409,41.148,313.845,35.305,313.845z"/>
			<path style="fill:#606A70;" d="M99.141,178.13c-16.542,0-30-13.458-30-30s13.458-30,30-30c16.542,0,30.001,13.458,30.001,30     S115.684,178.13,99.141,178.13z M99.141,148.111l0.001,0.018C99.142,148.117,99.141,148.111,99.141,148.111z"/>
		</g>
		<g>
			<path style="fill:#181B1F;" d="M476.694,313.845c-5.844,0-11.397-3.435-13.819-9.154L399.045,153.98     c-3.23-7.628,0.335-16.432,7.963-19.662c7.628-3.232,16.431,0.334,19.662,7.963L490.5,292.991     c3.23,7.628-0.335,16.432-7.963,19.662C480.628,313.462,478.644,313.845,476.694,313.845z"/>
			<path style="fill:#414952;" d="M412.858,178.13c-16.542,0-30-13.458-30-30s13.458-30,30-30c16.542,0,30,13.458,30,30     S429.4,178.13,412.858,178.13z M412.857,148.13c0,0.013,0.001,0.019,0.001,0.019L412.857,148.13z"/>
		</g>
	</g>
	<g>
		<g>
			<path style="fill:#F0F6FE;" d="M497.004,512.008h-482c-8.284,0-15-6.716-15-15V299.565c0-8.284,6.716-15,15-15h482     c8.284,0,15,6.716,15,15v197.442C512.004,505.292,505.288,512.008,497.004,512.008z"/>
			<path style="fill:#C9DFF7;" d="M497.004,284.565H255.996v227.442h241.008c8.284,0,15-6.716,15-15V299.565     C512.004,291.281,505.288,284.565,497.004,284.565z"/>
		</g>
		<g>
			<path style="fill:#C9DFF7;" d="M143.075,512.002V388.956c0-8.284,6.716-15,15-15h194.331c8.284,0,15,6.716,15,15v123.046H143.075     z"/>
			<path style="fill:#9EBBDB;" d="M352.406,373.956H251.073v138.046h116.333V388.956     C367.406,380.672,360.691,373.956,352.406,373.956z"/>
		</g>
	</g>
</g>















</svg>
