<?xml version="1.0" encoding="iso-8859-1"?>
<!-- Generator: Adobe Illustrator 21.0.0, SVG Export Plug-In . SVG Version: 6.00 Build 0)  -->
<svg xmlns="http://www.w3.org/2000/svg" xmlns:xlink="http://www.w3.org/1999/xlink" version="1.1" id="Capa_1" x="0px" y="0px" viewBox="0 0 512.003 512.003" style="enable-background:new 0 0 512.003 512.003;" xml:space="preserve" width="512" height="512">
<g>
	<g>
		<g>
			<rect x="227.643" y="378.005" style="fill:#C9DFF7;" width="60" height="118.997"/>
			<rect x="255.987" y="378.005" style="fill:#9EBBDB;" width="31.656" height="118.997"/>
		</g>
		<g>
			<path style="fill:#606A70;" d="M340.141,512.003H175.145c-8.284,0-15-6.716-15-15c0-8.284,6.716-15,15-15h164.996     c8.284,0,15,6.716,15,15C355.141,505.288,348.426,512.003,340.141,512.003z"/>
			<path style="fill:#414952;" d="M340.141,482.003h-84.154v30h84.154c8.284,0,15-6.716,15-15     C355.141,488.719,348.426,482.003,340.141,482.003z"/>
		</g>
	</g>
	<g>
		<g>
			<path style="fill:#49545C;" d="M256.016,393.005h-0.029c-51.262,0-92.966-41.704-92.966-92.965V169.772     c0-51.261,41.704-92.965,92.966-92.965c51.291,0,92.995,41.704,92.995,92.965V300.04     C348.982,351.301,307.278,393.005,256.016,393.005z"/>
			<path style="fill:#18304A;" d="M256.016,393.005c51.262,0,92.966-41.704,92.966-92.965V169.772     c0-51.261-41.704-92.965-92.995-92.965v316.199H256.016z"/>
		</g>
		<g>
			<rect x="163.021" y="244.003" style="fill:#C9DFF7;" width="185.961" height="30"/>
			<rect x="255.987" y="244.003" style="fill:#9EBBDB;" width="92.995" height="30"/>
		</g>
	</g>
	<g>
		<g>
			<path style="fill:#AECEF2;" d="M438.002,197.002h-44.333c-8.284,0-15-6.716-15-15c0-8.284,6.716-15,15-15h44.333     c8.284,0,15,6.716,15,15C453.002,190.287,446.286,197.002,438.002,197.002z"/>
		</g>
		<g>
			<path style="fill:#AECEF2;" d="M379.096,121.94c-5.15,0-10.163-2.654-12.955-7.419c-4.189-7.147-1.79-16.337,5.357-20.525     l37.815-22.159c7.146-4.187,16.337-1.789,20.525,5.358c4.189,7.147,1.79,16.337-5.357,20.525l-37.816,22.159     C384.283,121.275,381.672,121.94,379.096,121.94z"/>
		</g>
		<g>
			<path style="fill:#AECEF2;" d="M330.437,68.322c-2.314,0-4.662-0.537-6.861-1.671c-7.363-3.796-10.255-12.843-6.458-20.206     l19.756-38.315c3.797-7.363,12.842-10.255,20.206-6.458c7.363,3.796,10.255,12.843,6.458,20.206l-19.756,38.315     C341.119,65.357,335.874,68.322,330.437,68.322z"/>
		</g>
	</g>
	<g>
		<g>
			<path style="fill:#C9DFF7;" d="M118.335,197.002H74.002c-8.284,0-15-6.716-15-15c0-8.284,6.716-15,15-15h44.333     c8.284,0,15,6.716,15,15C133.335,190.287,126.619,197.002,118.335,197.002z"/>
		</g>
		<g>
			<path style="fill:#C9DFF7;" d="M132.908,121.94c-2.576,0-5.187-0.664-7.569-2.061L87.522,97.721     c-7.147-4.188-9.546-13.378-5.357-20.525c4.188-7.147,13.377-9.546,20.525-5.358l37.815,22.159     c7.148,4.188,9.546,13.378,5.357,20.525C143.072,119.285,138.057,121.94,132.908,121.94z"/>
		</g>
		<g>
			<path style="fill:#C9DFF7;" d="M181.566,68.322c-5.437,0-10.682-2.964-13.345-8.129l-19.756-38.315     c-3.797-7.363-0.905-16.41,6.458-20.206c7.364-3.798,16.41-0.904,20.206,6.458l19.756,38.315     c3.797,7.363,0.905,16.41-6.458,20.206C186.229,67.785,183.88,68.322,181.566,68.322z"/>
		</g>
	</g>
</g>















</svg>
