<?xml version="1.0" encoding="iso-8859-1"?>
<!-- Generator: Adobe Illustrator 21.0.0, SVG Export Plug-In . SVG Version: 6.00 Build 0)  -->
<svg xmlns="http://www.w3.org/2000/svg" xmlns:xlink="http://www.w3.org/1999/xlink" version="1.1" id="Capa_1" x="0px" y="0px" viewBox="0 0 512 512" style="enable-background:new 0 0 512 512;" xml:space="preserve" width="512" height="512">
<g>
	<g>
		<g>
			<path style="fill:#416191;" d="M245.175,226.874c-5.062,0-10.002-2.563-12.827-7.202c-4.308-7.076-2.063-16.305,5.013-20.612     l101.827-61.99c7.076-4.308,16.304-2.063,20.612,5.013c4.308,7.076,2.063,16.305-5.013,20.612l-101.827,61.99     C250.524,226.168,247.833,226.874,245.175,226.874z"/>
			<path style="fill:#416191;" d="M346.987,164.882c-3.832,0-7.663-1.459-10.591-4.378c-5.867-5.849-5.881-15.347-0.031-21.213     l10.742-10.773c5.849-5.867,15.347-5.88,21.213-0.031c5.867,5.849,5.881,15.347,0.031,21.213l-10.742,10.773     C354.68,163.411,350.833,164.882,346.987,164.882z"/>
			<path style="fill:#5877A6;" d="M369.208,351.31c-7.491,0-13.966-5.602-14.876-13.225L333.49,163.37l-174.161-20.901     c-8.226-0.987-14.093-8.456-13.106-16.681c0.987-8.225,8.452-14.088,16.68-13.106l185.872,22.307     c6.872,0.825,12.288,6.244,13.107,13.117l22.24,186.427c0.981,8.226-4.892,15.69-13.118,16.671     C370.401,351.274,369.801,351.31,369.208,351.31z"/>
		</g>
		<g>
			<path style="fill:#F0F6FE;" d="M302.765,420.343c-25.272,0-50.537-5.428-75.091-16.134     c-28.071-12.239-55.275-31.455-80.857-57.113c-63.252-63.441-74.53-124.109-72.853-163.831     c2.022-47.883,23.081-85.275,40.5-102.747c2.814-2.822,6.637-4.409,10.622-4.409c3.986,0,7.808,1.587,10.623,4.409     l277.018,277.846c5.836,5.854,5.836,15.327,0,21.182C393.963,398.365,353.905,420.343,302.765,420.343z"/>
			<path style="fill:#C9DFF7;" d="M412.727,358.363L274.353,219.576L146.825,347.104c25.58,25.654,52.781,44.867,80.848,57.105     c24.554,10.706,49.819,16.134,75.091,16.134c51.14,0,91.198-21.978,109.962-40.798     C418.563,373.69,418.563,364.218,412.727,358.363z"/>
		</g>
	</g>
	<g>
		<g>
			<path style="fill:#C9DFF7;" d="M277.021,512H45.21l42.584-173.854h146.645L277.021,512z"/>
			<polygon style="fill:#9EBBDB;" points="161.116,512 277.021,512 234.438,338.146 161.116,338.146    "/>
		</g>
		<g>
			<path style="fill:#2A3036;" d="M161.116,419.793c-33.636,0-61-27.39-61-61.056s27.364-61.056,61-61.056s61,27.39,61,61.056     S194.751,419.793,161.116,419.793z"/>
			<path style="fill:#181B1F;" d="M222.116,358.737c0-33.666-27.364-61.056-61-61.056v122.112     C194.751,419.793,222.116,392.404,222.116,358.737z"/>
		</g>
		<g>
			<path style="fill:#606A70;" d="M161.116,435.36c-42.211,0-76.553-34.373-76.553-76.623s34.341-76.623,76.553-76.623     s76.553,34.373,76.553,76.623S203.327,435.36,161.116,435.36z M161.116,312.114c-25.669,0-46.553,20.915-46.553,46.623     s20.883,46.623,46.553,46.623c25.67,0,46.553-20.915,46.553-46.623S186.785,312.114,161.116,312.114z"/>
			<path style="fill:#414952;" d="M207.668,358.737c0,25.708-20.883,46.623-46.553,46.623v30c42.211,0,76.553-34.373,76.553-76.623     s-34.341-76.623-76.553-76.623v30C186.785,312.114,207.668,333.029,207.668,358.737z"/>
		</g>
		<g>
			<path style="fill:#5877A6;" d="M296.231,512H26c-8.284,0-15-6.716-15-15s6.716-15,15-15h270.231c8.284,0,15,6.716,15,15     S304.516,512,296.231,512z"/>
			<path style="fill:#416191;" d="M296.231,482H161.116v30h135.116c8.284,0,15-6.716,15-15S304.516,482,296.231,482z"/>
		</g>
	</g>
	<g>
		<path style="fill:#C9DFF7;" d="M430.953,145.442c-8.284,0-15-6.716-15-15c0-24.94-20.21-45.23-45.052-45.23    c-8.284,0-15-6.716-15-15s6.716-15,15-15c41.384,0,75.052,33.748,75.052,75.23C445.953,138.727,439.237,145.442,430.953,145.442z"/>
		<path style="fill:#AECEF2;" d="M486,145.442c-8.284,0-15-6.716-15-15C471,75.059,426.096,30,370.901,30c-8.284,0-15-6.716-15-15    s6.716-15,15-15C442.638,0,501,58.517,501,130.442C501,138.727,494.284,145.442,486,145.442z"/>
	</g>
</g>















</svg>
