<svg fill="none" height="512" viewBox="0 0 24 24" width="512" xmlns="http://www.w3.org/2000/svg"><g fill="rgb(0,0,0)"><path d="m17.3717 17.5904c-.2262.3469-.1283.8116.2187 1.0378.3469.2263.8116.1284 1.0379-.2186 1.2021-1.8437 1.9006-4.0462 1.9006-6.4096 0-2.36341-.6985-4.56594-1.9006-6.40964-.2263-.34697-.691-.44485-1.0379-.21862-.347.22624-.4449.69091-.2187 1.03789 1.0481 1.60741 1.6572 3.52661 1.6572 5.59037 0 2.0637-.6091 3.9829-1.6572 5.5904z"/><path d="m6.18856 5.37174c.34698.22623.44486.69091.21862 1.03789-1.04805 1.60741-1.65718 3.52661-1.65718 5.59037 0 2.0637.60912 3.9829 1.65718 5.5904.22624.3469.12836.8116-.21862 1.0378-.34697.2263-.81165.1284-1.03788-.2186-1.20212-1.8437-1.90068-4.0462-1.90068-6.4096 0-2.36341.69856-4.56594 1.90068-6.40964.22623-.34697.69091-.44485 1.03788-.21862z"/><path d="m8.37318 8.39077c.33646.24159.41338.71019.17179 1.04666-.50047.69697-.79497 1.55077-.79497 2.47557s.2945 1.7786.79497 2.4756c.24159.3365.16467.8051-.17179 1.0467-.33647.2415-.80507.1646-1.04666-.1718-.67746-.9436-1.07652-2.1015-1.07652-3.3505 0-1.2489.39906-2.40692 1.07652-3.35044.24159-.33646.71019-.41338 1.04666-.17179z"/><path d="m12 9.25c-1.5188 0-2.75 1.2312-2.75 2.75s1.2312 2.75 2.75 2.75 2.75-1.2312 2.75-2.75-1.2312-2.75-2.75-2.75z"/><path d="m15.3908 14.3886c-.2416.3365-.1647.8051.1718 1.0467.3364.2416.805.1646 1.0466-.1718.6775-.9435 1.0766-2.1015 1.0766-3.3505 0-1.2489-.3991-2.4069-1.0766-3.35042-.2416-.33647-.7102-.41338-1.0466-.17179-.3365.24158-.4134.71019-.1718 1.04665.5004.69706.795 1.55076.795 2.47556s-.2946 1.7786-.795 2.4756z"/></g></svg>