<?xml version="1.0" encoding="iso-8859-1"?>
<!-- Generator: Adobe Illustrator 19.0.0, SVG Export Plug-In . SVG Version: 6.00 Build 0)  -->
<svg version="1.1" id="Capa_1" xmlns="http://www.w3.org/2000/svg" xmlns:xlink="http://www.w3.org/1999/xlink" x="0px" y="0px"
	 viewBox="0 0 463.514 463.514" style="enable-background:new 0 0 463.514 463.514;" xml:space="preserve">
<path style="fill:#F4A23F;" d="M142.714,352.557c-2.4,0-4,0-6.4-0.8l-60-19.2c-4.8-1.6-15.2-7.2-10.4-23.2l30.4-95.2l92,29.6
	l-30.4,94.4C156.314,346.157,149.914,351.757,142.714,352.557z"/>
<rect x="130.784" y="164.511" transform="matrix(-0.3062 0.952 -0.952 -0.3062 395.9818 137.2276)" style="fill:#FBCF4C;" width="34.401" height="96.803"/>
<path style="fill:#E28539;" d="M163.514,235.757l-29.6,92.8c-1.6,8-8,13.6-16,13.6c-2.4,0-4,0-6.4-0.8l-42.4-13.6
	c2.4,2.4,4.8,3.2,7.2,4.8l60,19.2c1.6,0.8,4,0.8,6.4,0.8c8-0.8,14.4-6.4,16-13.6l30.4-94.4L163.514,235.757z"/>
<polygon style="fill:#EDB248;" points="173.914,203.757 164.314,234.157 97.114,212.557 96.314,214.157 189.114,243.757 
	199.514,211.757 "/>
<path style="fill:#FFFFFF;" d="M165.114,397.357c-1.6,0-4,0-5.6-0.8l-128-41.6c-9.6-3.2-15.2-13.6-12-23.2
	c2.4-7.2,9.6-12.8,16.8-12.8l46.4-144.8l24,8l-40.8,126.4c-4.8,16,5.6,21.6,10.4,23.2l60,19.2c1.6,0.8,4,0.8,6.4,0.8
	c8-0.8,14.4-6.4,16-13.6l40.8-127.2l24,8l-47.2,144.8c6.4,4.8,8.8,12.8,6.4,20C180.314,391.757,173.114,397.357,165.114,397.357z"/>
<path style="fill:#F7EEBA;" d="M153.914,346.957l-14.4,43.2l20,6.4c1.6,0.8,4,0.8,5.6,0.8c8,0,15.2-4.8,17.6-12.8
	c2.4-7.2,0-15.2-6.4-20l46.4-144.8l-24-8l-40.8,127.2C157.114,341.357,156.314,344.557,153.914,346.957z"/>
<path style="fill:#FFFFFF;" d="M211.514,214.157c-2.4,0-4.8,0-7.2-0.8l-100-32c-4.8-1.6-9.6-4.8-12.8-8.8c-2.4-4-3.2-8-2.4-12.8
	c2.4-6.4,9.6-11.2,16.8-10.4c2.4,0,5.6,0.8,8,1.6h0.8c4.8-11.2,16-17.6,28-16.8c4.8,0,8.8,0.8,12.8,2.4c10.4,3.2,19.2,10.4,24,20
	c1.6,0,3.2-0.8,4.8,0c3.2,0,6.4,0.8,9.6,1.6c6.4,1.6,11.2,5.6,15.2,11.2c3.2,4,4,9.6,3.2,14.4v0.8v-0.8l0.8,0.8
	c5.6,1.6,10.4,5.6,12.8,10.4c1.6,3.2,2.4,6.4,0.8,9.6C224.314,210.957,217.914,214.157,211.514,214.157L211.514,214.157z"/>
<path style="fill:#F7EEBA;" d="M225.914,194.957c-3.2-4.8-7.2-8.8-12.8-10.4l-0.8-0.8l0,0v-0.8c1.6-4.8,0-10.4-3.2-14.4
	c-4-4.8-8.8-8.8-15.2-11.2c-3.2-0.8-6.4-1.6-9.6-1.6c-1.6,0-3.2,0-4.8,0c-4.8-9.6-13.6-17.6-24-20c-4-1.6-8.8-2.4-12.8-2.4
	c-4.8,0-9.6,0.8-14.4,3.2c1.6,0,2.4,0.8,4,0.8c10.4,3.2,19.2,10.4,24,20c1.6,0,3.2-0.8,4.8,0c3.2,0,6.4,0.8,9.6,1.6
	c6.4,1.6,11.2,5.6,15.2,11.2c3.2,4,4,9.6,3.2,14.4v0.8v0.8l0.8,0.8c5.6,1.6,10.4,5.6,12.8,10.4c1.6,3.2,2.4,6.4,0.8,9.6
	c-0.8,1.6-1.6,4-3.2,4.8l4,1.6c2.4,0.8,4.8,0.8,7.2,0.8c6.4,0.8,12.8-3.2,15.2-9.6C227.514,201.357,227.514,198.157,225.914,194.957
	z"/>
<path style="fill:#FFFFFF;" d="M299.514,397.357c-8,0-15.2-4.8-17.6-12.8c-2.4-7.2,0-15.2,6.4-20l-46.4-144.8l24-8l40.8,127.2
	c1.6,8,8,13.6,16,13.6c2.4,0,4,0,6.4-0.8l60-19.2c4.8-1.6,15.2-7.2,10.4-23.2l-31.2-93.6l-0.8-0.8v-2.4l-10.4-31.2l24-8l47.2,145.6
	c10.4,0,18.4,8.8,17.6,19.2c0,8-5.6,15.2-12.8,16.8l-128,41.6C303.514,397.357,301.114,397.357,299.514,397.357z"/>
<path style="fill:#F7EEBA;" d="M445.114,331.757c-2.4-7.2-8.8-12.8-16.8-12.8l-46.4-144.8l-24,8l10.4,31.2v0.8v1.6l0.8,0.8
	l29.6,92.8c0.8,2.4,1.6,5.6,1.6,8l13.6,44l20-6.4C443.514,351.757,448.314,341.357,445.114,331.757z"/>
<rect x="268.299" y="195.713" transform="matrix(-0.9519 0.3064 -0.3064 -0.9519 683.4017 318.5488)" style="fill:#FBCF4C;" width="96.8" height="34.4"/>
<polygon style="fill:#EDB248;" points="333.914,190.157 344.314,222.157 368.314,214.157 357.914,182.157 "/>
<path style="fill:#FFFFFF;" d="M253.114,214.157c-6.4,0.8-12.8-3.2-15.2-9.6c-0.8-3.2-0.8-6.4,0.8-9.6c2.4-4.8,7.2-8.8,12.8-10.4
	h0.8h0.8v-0.8c-1.6-5.6-0.8-11.2,2.4-15.2c4-4.8,8.8-8.8,15.2-11.2c3.2-0.8,6.4-1.6,9.6-1.6c1.6,0,3.2,0,4.8,0
	c4.8-9.6,13.6-17.6,24-20c4-1.6,8.8-2.4,12.8-2.4c11.2-0.8,22.4,5.6,27.2,16h1.6c2.4-0.8,5.6-1.6,8-1.6c7.2-0.8,14.4,3.2,16.8,10.4
	c1.6,4,0.8,8.8-2.4,12.8c-3.2,4.8-8,8-12.8,8.8l-100,32C257.914,213.357,255.514,214.157,253.114,214.157L253.114,214.157z"/>
<path style="fill:#F7EEBA;" d="M375.514,158.957c-3.2-6.4-9.6-11.2-16.8-10.4c-2.4,0-5.6,0.8-8,1.6h-1.6c-4.8-10.4-16-16.8-27.2-16
	c-4.8,0-8.8,0.8-12.8,2.4c-10.4,3.2-19.2,10.4-24,20c-1.6,0-3.2-0.8-4.8,0c-3.2,0-6.4,0.8-9.6,1.6c-6.4,1.6-11.2,5.6-15.2,11.2
	c-1.6,2.4-3.2,5.6-3.2,8c1.6-0.8,2.4-0.8,4-1.6c3.2-0.8,6.4-1.6,9.6-1.6c1.6,0,3.2,0,4.8,0c4.8-9.6,13.6-17.6,24-20
	c4-1.6,8.8-2.4,12.8-2.4c11.2-0.8,22.4,5.6,27.2,16h1.6c2.4-0.8,5.6-1.6,8-1.6c7.2-0.8,14.4,3.2,16.8,10.4c0,1.6,0.8,2.4,0.8,4
	c4.8-1.6,8.8-4.8,11.2-8.8C376.314,167.757,377.114,163.757,375.514,158.957z"/>
<path style="fill:#F4A23F;" d="M321.914,352.557c-8-0.8-14.4-6.4-16-13.6l-30.4-94.4l92.8-30.4l30.4,94.4c5.6,16-5.6,21.6-10.4,23.2
	l-60,19.2C325.914,351.757,324.314,352.557,321.914,352.557z"/>
<path style="fill:#E28539;" d="M398.714,308.557l-30.4-94.4l-24,8l30.4,94.4c4.8,15.2-4,20.8-8.8,22.4l22.4-7.2
	C393.114,330.157,403.514,325.357,398.714,308.557z"/>
<g>
	<path style="fill:#4A2328;" d="M447.514,204.557c-2.4-8.8-8-16.8-16-21.6c-5.6-3.2-12.8-3.2-19.2-0.8l-17.6,5.6l-4.8-16
		c-0.8-2.4-2.4-4.8-5.6-4.8c0.8-3.2,0-6.4-0.8-10.4c-4.8-12-17.6-18.4-29.6-15.2c-7.2-10.4-19.2-16-32-15.2c-5.6,0-10.4,0.8-16,2.4
		c-10.4,3.2-20,10.4-25.6,20c-4,0-8,0.8-12,1.6c-8,2.4-14.4,7.2-19.2,13.6c-3.2,4.8-4.8,10.4-4.8,16c-4.8,2.4-8.8,6.4-11.2,11.2
		c-2.4-4.8-6.4-8.8-12-11.2c0-5.6-1.6-11.2-4.8-16c-4.8-6.4-11.2-11.2-19.2-13.6c-4-0.8-8-1.6-12-1.6c-6.4-9.6-15.2-16-25.6-19.2
		c-4.8-1.6-10.4-2.4-16-2.4c-12.8-0.8-24,4.8-32,15.2c-1.6,0-3.2-0.8-5.6,0c-10.4-0.8-20.8,5.6-24.8,16c-0.8,3.2-1.6,6.4-0.8,10.4
		c-2.4,0.8-4.8,2.4-5.6,4.8l-4.8,16l-17.6-5.6c-6.4-2.4-12.8-1.6-19.2,0.8c-8,4.8-13.6,12.8-16,21.6l-15.2,46.4
		c-1.6,4-2.4,9.6-1.6,15.2c0,10.4,7.2,20,17.6,22.4l17.6,5.6l-5.6,16c-14.4,4-22.4,18.4-18.4,32c2.4,8.8,8.8,15.2,17.6,18.4
		l128,41.6c2.4,0.8,5.6,1.6,8,1.6c14.4,0,26.4-12,26.4-26.4c0-6.4-2.4-12-6.4-16.8l44.8-140c0.8-2.4,0-4.8-0.8-6.4
		c0.8-0.8,1.6-2.4,2.4-3.2c0.8,0.8,1.6,2.4,2.4,3.2c-1.6,1.6-1.6,4-0.8,6.4l45.6,140c-9.6,11.2-8,28,3.2,36.8
		c7.2,5.6,16.8,8,24.8,4.8l128-41.6c13.6-4,21.6-19.2,17.6-32.8c-2.4-8.8-9.6-15.2-18.4-17.6l-5.6-16l17.6-5.6
		c9.6-3.2,16.8-12,17.6-22.4c0-5.6-0.8-11.2-2.4-16.8L447.514,204.557z M22.714,274.957c-4-0.8-6.4-4-6.4-8s0-7.2,1.6-11.2
		l14.4-46.4c0.8-4.8,4-8.8,8-12c2.4-0.8,4.8-0.8,7.2,0l17.6,5.6l-24.8,77.6L22.714,274.957z M168.314,362.157
		c-0.8,3.2,0,6.4,2.4,8.8c3.2,2.4,4.8,7.2,4,11.2c-1.6,5.6-8,8.8-12.8,6.4l-128-41.6c-5.6-1.6-8.8-7.2-7.2-12.8
		c1.6-4,4.8-7.2,9.6-7.2c3.2,0,6.4-2.4,7.2-5.6l44.8-137.6l8.8,3.2l-8,24.8l0,0l-30.4,94.4c-5.6,12,0,26.4,12,32
		c1.6,0.8,2.4,0.8,4,1.6l60,19.2c2.4,0.8,5.6,1.6,8.8,1.6c11.2-0.8,20.8-8,23.2-19.2l30.4-94.4l0,0l8-24.8l8.8,2.4L168.314,362.157z
		 M178.714,249.357l-28,86.4c-0.8,2.4-3.2,8-8,8c-1.6,0-2.4,0-4-0.8l-60-19.2c-5.6-1.6-7.2-5.6-4.8-12.8l28-87.2L178.714,249.357z
		 M106.714,209.357l5.6-17.6l54.4,17.6l22.4,7.2l-5.6,17.6L106.714,209.357z M206.714,205.357l-100-32c-3.2-0.8-6.4-3.2-8.8-5.6
		c-1.6-1.6-1.6-4-1.6-5.6c1.6-3.2,5.6-4.8,8.8-4.8c1.6,0,4,0,5.6,0.8h1.6c4,1.6,8.8-0.8,10.4-4.8c0,0,0,0,0-0.8
		c3.2-7.2,11.2-12,20-11.2c4,0,7.2,0.8,10.4,1.6c8,2.4,15.2,8,18.4,16c1.6,3.2,4.8,5.6,8.8,4.8c3.2-0.8,7.2,0,10.4,0.8
		c4.8,1.6,8,4,11.2,8c1.6,2.4,2.4,4.8,2.4,8l-0.8,0.8c-1.6,4,0,8.8,4,10.4h0.8h0.8c6.4,1.6,9.6,6.4,8.8,9.6
		S212.314,206.957,206.714,205.357z M245.114,202.157c-0.8-3.2,2.4-8,8.8-9.6h0.8c4-0.8,7.2-5.6,5.6-9.6v-0.8v-0.8l0,0
		c-0.8-2.4,0-5.6,1.6-8c2.4-4,6.4-6.4,11.2-8c3.2-0.8,7.2-1.6,10.4-0.8c4,0.8,7.2-1.6,8.8-4.8c4-8,10.4-13.6,18.4-16
		c3.2-0.8,7.2-1.6,10.4-1.6c8-0.8,16,3.2,20,10.4c0.8,2.4,2.4,4,4,4.8c2.4,0.8,4.8,0.8,6.4,0l0.8-0.8c6.4-2.4,13.6,0,14.4,4
		c0.8,2.4,0,4-1.6,5.6c-2.4,3.2-4.8,4.8-8.8,5.6l-100,32C252.314,206.957,246.714,205.357,245.114,202.157z M362.714,224.557
		l28,86.4c2.4,7.2,0.8,11.2-4.8,12.8l-60,20c-0.8,0-2.4,0.8-4,0.8l0,0c-4.8,0-7.2-5.6-8-8l-28-87.2L362.714,224.557z
		 M281.114,234.157l-5.6-17.6l22.4-7.2l54.4-17.6l5.6,17.6L281.114,234.157z M437.114,334.157c1.6,5.6-1.6,11.2-6.4,13.6l-128,41.6
		c-5.6,1.6-11.2-1.6-13.6-6.4c-1.6-4,0-8.8,4-11.2c2.4-2.4,4-5.6,2.4-8.8l-44-137.6l8.8-2.4l8,24.8l0,0l30.4,94.4
		c2.4,11.2,12,19.2,23.2,19.2l0,0c3.2,0,5.6-0.8,8.8-1.6l60-19.2c12.8-3.2,20-16.8,16.8-29.6c0-1.6-0.8-2.4-1.6-4l-30.4-94.4l0,0
		l-8-24.8l8.8-3.2l44,137.6c0.8,3.2,4,5.6,7.2,5.6C432.314,327.757,436.314,330.157,437.114,334.157z M448.314,266.157
		c0,4-3.2,7.2-6.4,8l-17.6,6.4l-24.8-78.4l17.6-5.6c2.4-0.8,4.8-0.8,7.2,0c4,3.2,7.2,7.2,8,12l15.2,47.2
		C448.314,258.957,448.314,262.957,448.314,266.157z"/>
	<path style="fill:#4A2328;" d="M230.714,135.757c4.8,0,8-3.2,8-8v-61.6c0-4.8-3.2-8-8-8s-8,3.2-8,8v61.6
		C222.714,132.557,226.714,135.757,230.714,135.757z"/>
	<path style="fill:#4A2328;" d="M253.914,141.357c4,2.4,8.8,0.8,10.4-3.2l32-61.6c1.6-4,0-8.8-4-10.4s-8,0-9.6,3.2l-32,61.6
		C249.114,134.157,250.714,138.957,253.914,141.357z"/>
	<path style="fill:#4A2328;" d="M196.314,138.157c1.6,4,6.4,5.6,10.4,4s5.6-6.4,4-10.4c0,0,0-0.8-0.8-0.8l-32-61.6
		c-2.4-4-7.2-4.8-11.2-2.4c-3.2,2.4-4.8,6.4-3.2,9.6L196.314,138.157z"/>
</g>
<g>
</g>
<g>
</g>
<g>
</g>
<g>
</g>
<g>
</g>
<g>
</g>
<g>
</g>
<g>
</g>
<g>
</g>
<g>
</g>
<g>
</g>
<g>
</g>
<g>
</g>
<g>
</g>
<g>
</g>
</svg>
